<svg xmlns="http://www.w3.org/2000/svg" width="100" height="100" viewBox="0 0 100 100">
  <g fill="none" fill-rule="evenodd" transform="translate(-10 -10)">
    <path fill="#0073AA" d="M100,10 L20,10 C14.5,10 10.05,14.5 10.05,20 L10,110 L30,90 L100,90 C105.5,90 110,85.5 110,80 L110,20 C110,14.5 105.5,10 100,10 L100,10 Z M30,45 L90,45 L90,55 L30,55 L30,45 L30,45 Z M70,70 L30,70 L30,60 L70,60 L70,70 L70,70 Z M90,40 L30,40 L30,30 L90,30 L90,40 L90,40 Z"/>
    <polygon points="0 0 120 0 120 120 0 120"/>
  </g>
</svg>
